<svg width="32" height="32" viewBox="0 0 32 32" fill="none" xmlns="http://www.w3.org/2000/svg">
<circle cx="16" cy="16" r="16" fill="#ECECEC"/>
<path d="M15.8854 23.333C15.9465 23.333 16.0076 23.3177 16.0687 23.2872C16.1298 23.2566 16.1757 23.2261 16.2062 23.1955L23.7229 15.6788C23.9062 15.4955 24.0399 15.2893 24.1239 15.0601C24.208 14.8309 24.25 14.6018 24.25 14.3726C24.25 14.1281 24.208 13.8952 24.1239 13.6736C24.0399 13.4521 23.9062 13.2573 23.7229 13.0893L19.8271 9.19342C19.659 9.01009 19.4642 8.87641 19.2427 8.79238C19.0212 8.70836 18.7882 8.66634 18.5437 8.66634C18.3146 8.66634 18.0854 8.70836 17.8562 8.79238C17.6271 8.87641 17.4208 9.01009 17.2375 9.19342L16.9854 9.44551L18.6812 11.1643C18.9104 11.3781 19.0784 11.6226 19.1854 11.8976C19.2923 12.1726 19.3458 12.4629 19.3458 12.7684C19.3458 13.4101 19.1281 13.9486 18.6927 14.384C18.2573 14.8195 17.7187 15.0372 17.0771 15.0372C16.7715 15.0372 16.4774 14.9837 16.1948 14.8768C15.9121 14.7698 15.6639 14.6094 15.45 14.3955L13.7312 12.6997L9.7208 16.7101C9.67497 16.7559 9.6406 16.8056 9.61768 16.859C9.59476 16.9125 9.5833 16.9698 9.5833 17.0309C9.5833 17.1531 9.62914 17.2639 9.7208 17.3632C9.81247 17.4625 9.91941 17.5122 10.0416 17.5122C10.1027 17.5122 10.1639 17.4969 10.225 17.4663C10.2861 17.4358 10.3319 17.4052 10.3625 17.3747L13.4791 14.258L14.7625 15.5413L11.6687 18.658C11.6229 18.7038 11.5885 18.7535 11.5656 18.807C11.5427 18.8604 11.5312 18.9177 11.5312 18.9788C11.5312 19.1011 11.5771 19.208 11.6687 19.2997C11.7604 19.3913 11.8673 19.4372 11.9896 19.4372C12.0507 19.4372 12.1118 19.4219 12.1729 19.3913C12.234 19.3608 12.2798 19.3302 12.3104 19.2997L15.4271 16.2059L16.7104 17.4893L13.6166 20.6059C13.5708 20.6365 13.5364 20.6823 13.5135 20.7434C13.4906 20.8045 13.4791 20.8656 13.4791 20.9268C13.4791 21.049 13.525 21.1559 13.6166 21.2476C13.7083 21.3393 13.8152 21.3851 13.9375 21.3851C13.9986 21.3851 14.0559 21.3736 14.1093 21.3507C14.1628 21.3278 14.2125 21.2934 14.2583 21.2476L17.375 18.1538L18.6583 19.4372L15.5416 22.5538C15.4958 22.5997 15.4614 22.6493 15.4385 22.7028C15.4156 22.7563 15.4041 22.8136 15.4041 22.8747C15.4041 22.9969 15.4538 23.1038 15.5531 23.1955C15.6524 23.2872 15.7632 23.333 15.8854 23.333ZM15.8625 25.1663C15.2972 25.1663 14.7968 24.9792 14.3614 24.6049C13.926 24.2306 13.6701 23.7608 13.5937 23.1955C13.0743 23.1191 12.6389 22.9052 12.2875 22.5538C11.9361 22.2025 11.7222 21.767 11.6458 21.2476C11.1264 21.1712 10.6948 20.9535 10.351 20.5945C10.0073 20.2354 9.79719 19.8038 9.7208 19.2997C9.14025 19.2233 8.66664 18.9712 8.29997 18.5434C7.9333 18.1156 7.74997 17.6115 7.74997 17.0309C7.74997 16.7254 7.80726 16.4313 7.92185 16.1486C8.03643 15.866 8.20066 15.6177 8.41455 15.4038L13.7312 10.1101L16.7333 13.1122C16.7639 13.158 16.8097 13.1924 16.8708 13.2153C16.9319 13.2382 16.993 13.2497 17.0541 13.2497C17.1916 13.2497 17.3062 13.2077 17.3979 13.1236C17.4896 13.0396 17.5354 12.9288 17.5354 12.7913C17.5354 12.7302 17.5239 12.6691 17.501 12.608C17.4781 12.5469 17.4437 12.5011 17.3979 12.4705L14.1208 9.19342C13.9527 9.01009 13.758 8.87641 13.5364 8.79238C13.3149 8.70836 13.0819 8.66634 12.8375 8.66634C12.6083 8.66634 12.3791 8.70836 12.15 8.79238C11.9208 8.87641 11.7146 9.01009 11.5312 9.19342L8.29997 12.4476C8.16247 12.5851 8.04789 12.7455 7.95622 12.9288C7.86455 13.1122 7.80344 13.2955 7.77289 13.4788C7.74233 13.6622 7.74233 13.8493 7.77289 14.0403C7.80344 14.2313 7.86455 14.4108 7.95622 14.5788L6.62705 15.908C6.36733 15.5566 6.17636 15.1709 6.05414 14.7507C5.93192 14.3306 5.88608 13.9066 5.91664 13.4788C5.94719 13.0511 6.05414 12.6347 6.23747 12.2299C6.4208 11.825 6.67289 11.4622 6.99372 11.1413L10.225 7.91009C10.5916 7.5587 11.0003 7.29134 11.451 7.10801C11.9017 6.92467 12.3639 6.83301 12.8375 6.83301C13.3111 6.83301 13.7732 6.92467 14.2239 7.10801C14.6746 7.29134 15.0757 7.5587 15.4271 7.91009L15.6791 8.16217L15.9312 7.91009C16.2979 7.5587 16.7066 7.29134 17.1573 7.10801C17.608 6.92467 18.0701 6.83301 18.5437 6.83301C19.0173 6.83301 19.4795 6.92467 19.9302 7.10801C20.3809 7.29134 20.7819 7.5587 21.1333 7.91009L25.0062 11.783C25.3576 12.1344 25.625 12.5393 25.8083 12.9976C25.9916 13.4559 26.0833 13.9219 26.0833 14.3955C26.0833 14.8691 25.9916 15.3313 25.8083 15.782C25.625 16.2327 25.3576 16.6337 25.0062 16.9851L17.4896 24.4788C17.2757 24.6927 17.0274 24.8608 16.7448 24.983C16.4621 25.1052 16.168 25.1663 15.8625 25.1663Z" fill="#616161"/>
</svg>
