<svg width="32" height="32" viewBox="0 0 32 32" fill="none" xmlns="http://www.w3.org/2000/svg">
<circle cx="16" cy="16" r="16" fill="#ECECEC"/>
<path d="M16 16.0003C14.9916 16.0003 14.1284 15.6413 13.4104 14.9232C12.6923 14.2052 12.3333 13.342 12.3333 12.3337C12.3333 11.3253 12.6923 10.4621 13.4104 9.74408C14.1284 9.02602 14.9916 8.66699 16 8.66699C17.0083 8.66699 17.8715 9.02602 18.5895 9.74408C19.3076 10.4621 19.6666 11.3253 19.6666 12.3337C19.6666 13.342 19.3076 14.2052 18.5895 14.9232C17.8715 15.6413 17.0083 16.0003 16 16.0003ZM8.66663 23.3337V20.767C8.66663 20.2475 8.80031 19.7701 9.06767 19.3347C9.33503 18.8993 9.69024 18.567 10.1333 18.3378C11.0805 17.8642 12.043 17.509 13.0208 17.2722C13.9986 17.0354 14.9916 16.917 16 16.917C17.0083 16.917 18.0013 17.0354 18.9791 17.2722C19.9569 17.509 20.9194 17.8642 21.8666 18.3378C22.3097 18.567 22.6649 18.8993 22.9323 19.3347C23.1996 19.7701 23.3333 20.2475 23.3333 20.767V23.3337H8.66663ZM10.5 21.5003H21.5V20.767C21.5 20.5989 21.4579 20.4462 21.3739 20.3087C21.2899 20.1712 21.1791 20.0642 21.0416 19.9878C20.2166 19.5753 19.384 19.266 18.5437 19.0597C17.7034 18.8535 16.8555 18.7503 16 18.7503C15.1444 18.7503 14.2965 18.8535 13.4562 19.0597C12.6159 19.266 11.7833 19.5753 10.9583 19.9878C10.8208 20.0642 10.71 20.1712 10.626 20.3087C10.542 20.4462 10.5 20.5989 10.5 20.767V21.5003ZM16 14.167C16.5041 14.167 16.9357 13.9875 17.2948 13.6285C17.6538 13.2694 17.8333 12.8378 17.8333 12.3337C17.8333 11.8295 17.6538 11.3979 17.2948 11.0389C16.9357 10.6798 16.5041 10.5003 16 10.5003C15.4958 10.5003 15.0642 10.6798 14.7052 11.0389C14.3461 11.3979 14.1666 11.8295 14.1666 12.3337C14.1666 12.8378 14.3461 13.2694 14.7052 13.6285C15.0642 13.9875 15.4958 14.167 16 14.167Z" fill="#616161"/>
</svg>
