<svg width="20" height="20" viewBox="0 0 20 20" fill="none" xmlns="http://www.w3.org/2000/svg">
<path d="M13.2829 0.769857C13.2829 0.345052 13.7028 0 14.222 0C14.7412 0 15.1611 0.345052 15.1611 0.769857V4.14225C15.1611 4.56706 14.7412 4.91211 14.222 4.91211C13.7028 4.91211 13.2829 4.56706 13.2829 4.14225V0.769857ZM10.7601 16.8962C10.7048 16.8962 10.6608 16.6634 10.6608 16.3753C10.6608 16.0872 10.7048 15.8545 10.7601 15.8545H13.3301C13.3854 15.8545 13.4294 16.0872 13.4294 16.3753C13.4294 16.6634 13.3854 16.8962 13.3301 16.8962H10.7601ZM2.57975 10.9196C2.52441 10.9196 2.48047 10.6868 2.48047 10.3988C2.48047 10.1107 2.52441 9.87793 2.57975 9.87793H5.14974C5.20508 9.87793 5.24902 10.1107 5.24902 10.3988C5.24902 10.6868 5.20508 10.9196 5.14974 10.9196H2.57975ZM6.66992 10.9196C6.61458 10.9196 6.57064 10.6868 6.57064 10.3988C6.57064 10.1107 6.61458 9.87793 6.66992 9.87793H9.23991C9.29525 9.87793 9.33919 10.1107 9.33919 10.3988C9.33919 10.6868 9.29525 10.9196 9.23991 10.9196H6.66992ZM10.7601 10.9196C10.7048 10.9196 10.6608 10.6868 10.6608 10.3988C10.6608 10.1107 10.7048 9.87793 10.7601 9.87793H13.3301C13.3854 9.87793 13.4294 10.1107 13.4294 10.3988C13.4294 10.6868 13.3854 10.9196 13.3301 10.9196H10.7601ZM14.8519 10.9196C14.7965 10.9196 14.7526 10.6868 14.7526 10.3988C14.7526 10.1107 14.7965 9.87793 14.8519 9.87793H17.4219C17.4772 9.87793 17.5212 10.1107 17.5212 10.3988C17.5212 10.6868 17.4772 10.9196 17.4219 10.9196H14.8519ZM2.57975 13.9079C2.52441 13.9079 2.48047 13.6751 2.48047 13.387C2.48047 13.099 2.52441 12.8662 2.57975 12.8662H5.14974C5.20508 12.8662 5.24902 13.099 5.24902 13.387C5.24902 13.6751 5.20508 13.9079 5.14974 13.9079H2.57975ZM6.66992 13.9079C6.61458 13.9079 6.57064 13.6751 6.57064 13.387C6.57064 13.099 6.61458 12.8662 6.66992 12.8662H9.23991C9.29525 12.8662 9.33919 13.099 9.33919 13.387C9.33919 13.6751 9.29525 13.9079 9.23991 13.9079H6.66992ZM10.7601 13.9079C10.7048 13.9079 10.6608 13.6751 10.6608 13.387C10.6608 13.099 10.7048 12.8662 10.7601 12.8662H13.3301C13.3854 12.8662 13.4294 13.099 13.4294 13.387C13.4294 13.6751 13.3854 13.9079 13.3301 13.9079H10.7601ZM14.8519 13.9079C14.7965 13.9079 14.7526 13.6751 14.7526 13.387C14.7526 13.099 14.7965 12.8662 14.8519 12.8662H17.4219C17.4772 12.8662 17.5212 13.099 17.5212 13.387C17.5212 13.6751 17.4772 13.9079 17.4219 13.9079H14.8519ZM2.57975 16.8962C2.52441 16.8962 2.48047 16.6634 2.48047 16.3753C2.48047 16.0872 2.52441 15.8545 2.57975 15.8545H5.14974C5.20508 15.8545 5.24902 16.0872 5.24902 16.3753C5.24902 16.6634 5.20508 16.8962 5.14974 16.8962H2.57975ZM6.66992 16.8962C6.61458 16.8962 6.57064 16.6634 6.57064 16.3753C6.57064 16.0872 6.61458 15.8545 6.66992 15.8545H9.23991C9.29525 15.8545 9.33919 16.0872 9.33919 16.3753C9.33919 16.6634 9.29525 16.8962 9.23991 16.8962H6.66992ZM4.81934 0.769857C4.81934 0.345052 5.23926 0 5.75846 0C6.27767 0 6.69759 0.345052 6.69759 0.769857V4.14225C6.69759 4.56706 6.27767 4.91211 5.75846 4.91211C5.23926 4.91211 4.81934 4.56706 4.81934 4.14225V0.769857ZM1.04167 7.3763H18.9567V3.49447C18.9567 3.36426 18.903 3.24544 18.8167 3.15755C18.7305 3.07129 18.6117 3.01758 18.4798 3.01758H16.7643C16.4762 3.01758 16.2435 2.78483 16.2435 2.49674C16.2435 2.20866 16.4762 1.97591 16.7643 1.97591H18.4814C18.8997 1.97591 19.279 2.14681 19.554 2.42188C19.8291 2.69694 20 3.07617 20 3.49447V7.89876V18.4831C20 18.9014 19.8291 19.2806 19.554 19.5557C19.279 19.8307 18.8997 20.0016 18.4814 20.0016H1.51855C1.10026 20.0016 0.721029 19.8307 0.445964 19.5557C0.170898 19.279 0 18.8997 0 18.4814V7.89714V3.49447C0 3.07617 0.170898 2.69694 0.445964 2.42188C0.721029 2.14681 1.10026 1.97591 1.51855 1.97591H3.35286C3.64095 1.97591 3.8737 2.20866 3.8737 2.49674C3.8737 2.78483 3.64095 3.01758 3.35286 3.01758H1.51855C1.38835 3.01758 1.26953 3.07129 1.18164 3.15755C1.09538 3.24382 1.04167 3.36263 1.04167 3.49447V7.3763ZM18.9583 8.4196H1.04167V18.4814C1.04167 18.6117 1.09538 18.7305 1.18164 18.8184C1.2679 18.9046 1.38672 18.9583 1.51855 18.9583H18.4814C18.6117 18.9583 18.7305 18.9046 18.8184 18.8184C18.9046 18.7321 18.9583 18.6133 18.9583 18.4814V8.4196ZM8.20801 3.01758C7.91992 3.01758 7.68717 2.78483 7.68717 2.49674C7.68717 2.20866 7.91992 1.97591 8.20801 1.97591H11.7057C11.9938 1.97591 12.2266 2.20866 12.2266 2.49674C12.2266 2.78483 11.9938 3.01758 11.7057 3.01758H8.20801Z" fill="#445668"/>
</svg>
