<svg width="32" height="32" viewBox="0 0 32 32" fill="none" xmlns="http://www.w3.org/2000/svg">
<circle cx="16" cy="16" r="16" fill="#ECECEC"/>
<path d="M11.7605 24.2729C11.2105 24.2576 10.6872 24.1163 10.1907 23.849C9.69414 23.5816 9.22435 23.1882 8.78129 22.6688C8.17018 21.9354 7.69275 21.0608 7.349 20.0448C7.00525 19.0288 6.83337 17.9861 6.83337 16.9167C6.83337 15.6486 7.074 14.4569 7.55525 13.3417C8.0365 12.2264 8.68962 11.2563 9.51462 10.4313C10.3396 9.60625 11.3098 8.95312 12.425 8.47188C13.5403 7.99063 14.732 7.75 16 7.75C17.2681 7.75 18.4598 7.99444 19.575 8.48333C20.6903 8.97222 21.6605 9.63681 22.4855 10.4771C23.3105 11.3174 23.9636 12.3028 24.4448 13.4333C24.9261 14.5639 25.1667 15.7785 25.1667 17.0771C25.1667 18.2535 24.9757 19.3535 24.5938 20.3771C24.2118 21.4007 23.6695 22.2639 22.9667 22.9667C22.5389 23.3944 22.0882 23.7191 21.6146 23.9406C21.141 24.1622 20.6598 24.2729 20.1709 24.2729C19.8959 24.2729 19.6209 24.2385 19.3459 24.1698C19.0709 24.101 18.7959 23.9979 18.5209 23.8604L17.2375 23.2188C17.0542 23.1271 16.8594 23.0583 16.6532 23.0125C16.4469 22.9667 16.2292 22.9438 16 22.9438C15.7709 22.9438 15.5532 22.9667 15.3469 23.0125C15.1407 23.0583 14.9459 23.1271 14.7625 23.2188L13.4792 23.8604C13.1889 24.0132 12.9025 24.124 12.6198 24.1927C12.3372 24.2615 12.0507 24.2882 11.7605 24.2729ZM11.8063 22.4396C11.9438 22.4396 12.0851 22.4243 12.2302 22.3938C12.3754 22.3632 12.5167 22.3097 12.6542 22.2333L13.9375 21.5917C14.2584 21.4236 14.5907 21.3014 14.9344 21.225C15.2782 21.1486 15.6257 21.1104 15.9771 21.1104C16.3285 21.1104 16.6799 21.1486 17.0313 21.225C17.3827 21.3014 17.7188 21.4236 18.0396 21.5917L19.3459 22.2333C19.4834 22.3097 19.6209 22.3632 19.7584 22.3938C19.8959 22.4243 20.0334 22.4396 20.1709 22.4396C20.4612 22.4396 20.7362 22.3632 20.9959 22.2104C21.2556 22.0576 21.5153 21.8285 21.775 21.5229C22.2639 20.9424 22.6459 20.2472 22.9209 19.4375C23.1959 18.6278 23.3334 17.7951 23.3334 16.9396C23.3334 14.8924 22.623 13.1545 21.2021 11.726C19.7813 10.2976 18.0473 9.58333 16 9.58333C13.9528 9.58333 12.2188 10.3014 10.798 11.7375C9.37712 13.1736 8.66671 14.9153 8.66671 16.9625C8.66671 17.8333 8.80803 18.6813 9.09067 19.5063C9.3733 20.3313 9.76671 21.0264 10.2709 21.5917C10.5306 21.8972 10.7827 22.1149 11.0271 22.2448C11.2716 22.3747 11.5313 22.4396 11.8063 22.4396ZM16 18.75C16.5042 18.75 16.9358 18.5705 17.2948 18.2115C17.6539 17.8524 17.8334 17.4208 17.8334 16.9167C17.8334 16.7944 17.8219 16.6722 17.799 16.55C17.7761 16.4278 17.7417 16.3056 17.6959 16.1833L18.8417 14.6479C18.9945 14.8465 19.1282 15.0566 19.2427 15.2781C19.3573 15.4997 19.4528 15.7403 19.5292 16H21.4084C21.1792 14.6556 20.5566 13.5556 19.5407 12.7C18.5247 11.8444 17.3445 11.4167 16 11.4167C14.6556 11.4167 13.4716 11.8483 12.448 12.7115C11.4243 13.5747 10.8056 14.6708 10.5917 16H12.4709C12.6848 15.175 13.1202 14.5104 13.7771 14.0062C14.4341 13.5021 15.175 13.25 16 13.25C16.2598 13.25 16.5042 13.2729 16.7334 13.3187C16.9625 13.3646 17.1841 13.4333 17.398 13.525L16.2292 15.1063C16.1987 15.1063 16.1605 15.1024 16.1146 15.0948C16.0688 15.0872 16.0306 15.0833 16 15.0833C15.4959 15.0833 15.0643 15.2628 14.7052 15.6219C14.3462 15.9809 14.1667 16.4125 14.1667 16.9167C14.1667 17.4208 14.3462 17.8524 14.7052 18.2115C15.0643 18.5705 15.4959 18.75 16 18.75Z" fill="#616161"/>
</svg>
