<svg width="20" height="20" viewBox="0 0 20 20" fill="none" xmlns="http://www.w3.org/2000/svg">
<path d="M20 6.72541C20 10.3803 20 14.0353 20 17.6902C20 19.0279 19.0366 19.9938 17.7079 19.9975C16.5201 20.0008 15.3323 20.0008 14.1445 19.9975C13.2188 19.9975 12.5954 19.3606 12.5942 18.4277C12.5942 17.1241 12.5942 15.8205 12.5942 14.517C12.5942 13.9614 12.3035 13.6659 11.7567 13.6653C10.585 13.6653 9.41238 13.6653 8.23898 13.6653C7.70144 13.6653 7.40953 13.9589 7.40953 14.5002C7.40953 15.7963 7.40953 17.0922 7.40953 18.3879C7.40953 19.3811 6.79238 19.9981 5.80494 19.9988H2.35569C0.949203 19.9988 0.000643565 19.0484 2.64147e-05 17.6399C2.64147e-05 15.8323 2.64147e-05 14.0243 2.64147e-05 12.2159C2.64147e-05 10.4002 0.00558076 8.58453 2.64147e-05 6.76886C-0.00305933 6.10652 0.264167 5.62669 0.825156 5.28901C3.60891 3.61383 6.39143 1.93451 9.17272 0.251053C9.71767 -0.0779409 10.2651 -0.0866313 10.8125 0.242983L19.2181 5.31508C19.7457 5.63662 20.0006 6.1059 20 6.72541Z" fill="#2051E5"/>
</svg>
