<svg width="22" height="20" viewBox="0 0 22 20" fill="none" xmlns="http://www.w3.org/2000/svg">
<path d="M8.38095 0C10.6857 0 12.5714 1.89474 12.5714 4.21053C12.5714 6.52632 10.6857 8.42105 8.38095 8.42105C6.07619 8.42105 4.19048 6.52632 4.19048 4.21053C4.19048 1.89474 6.07619 0 8.38095 0ZM15.7143 17.8947L17.6 19.7579C18.1238 20.2842 18.8571 19.8632 18.8571 19.2421V14.7368L21.7905 11.1579C21.9072 11.0015 21.9783 10.8155 21.9958 10.6208C22.0132 10.4262 21.9764 10.2304 21.8894 10.0556C21.8024 9.88072 21.6686 9.73367 21.5031 9.63089C21.3376 9.52812 21.1469 9.47368 20.9524 9.47368H13.619C12.781 9.47368 12.2571 10.5263 12.781 11.1579L15.7143 14.7368V17.8947ZM13.619 15.4737L11.2095 12.5263C10.7905 12 10.581 11.3684 10.581 10.7368C9.84762 10.5263 9.11429 10.5263 8.38095 10.5263C3.77143 10.5263 0 12.4211 0 14.7368V16.8421H13.619V15.4737Z" fill="#445668"/>
</svg>
