<svg width="16" height="17" viewBox="0 0 16 17" fill="none" xmlns="http://www.w3.org/2000/svg">
<path d="M12.9402 2.07107C11.5186 0.744985 9.59057 -1.39725e-08 7.58018 0C5.56979 1.39725e-08 3.64174 0.744985 2.22018 2.07107C0.798624 3.39715 1.49786e-08 5.1957 0 7.07107C-1.49786e-08 8.94643 0.798624 10.745 2.22018 12.0711L6.92805 16.4711C7.0111 16.5492 7.1099 16.6112 7.21876 16.6535C7.32762 16.6958 7.44439 16.7176 7.56232 16.7176C7.68025 16.7176 7.79701 16.6958 7.90587 16.6535C8.01473 16.6112 8.11354 16.5492 8.19658 16.4711L12.9402 12.0294C14.3558 10.7088 15.1511 8.91778 15.1511 7.05023C15.1511 5.18269 14.3558 3.39163 12.9402 2.07107ZM11.6627 10.8377L7.58018 14.6627L3.49765 10.8377C2.6911 10.0847 2.142 9.12544 1.91975 8.08131C1.69751 7.03718 1.8121 5.95502 2.24904 4.97163C2.68599 3.98825 3.42566 3.14778 4.37457 2.55647C5.32348 1.96515 6.43903 1.64955 7.58018 1.64955C8.72134 1.64955 9.83688 1.96515 10.7858 2.55647C11.7347 3.14778 12.4744 3.98825 12.9113 4.97163C13.3483 5.95502 13.4629 7.03718 13.2406 8.08131C13.0184 9.12544 12.4693 10.0847 11.6627 10.8377ZM4.90018 4.51273C4.17901 5.18754 3.77404 6.10154 3.77404 7.0544C3.77404 8.00726 4.17901 8.92126 4.90018 9.59607C5.43597 10.0967 6.11832 10.4386 6.86163 10.5789C7.60494 10.7192 8.3761 10.6516 9.07837 10.3845C9.78064 10.1175 10.3827 9.66297 10.8091 9.07794C11.2355 8.49292 11.4672 7.80346 11.4751 7.09607C11.4791 6.62374 11.3816 6.15545 11.1883 5.71889C10.9949 5.28233 10.7097 4.88636 10.3495 4.5544C9.99546 4.21655 9.57328 3.94735 9.10727 3.76229C8.64125 3.57723 8.14061 3.47996 7.63414 3.47609C7.12768 3.47222 6.62539 3.56182 6.15619 3.73972C5.68698 3.91763 5.26013 4.18034 4.90018 4.51273ZM9.08992 8.41273C8.75138 8.73335 8.30397 8.93432 7.82418 8.98128C7.34438 9.02824 6.862 8.91827 6.4595 8.67017C6.05701 8.42208 5.75939 8.05127 5.61754 7.62114C5.47568 7.191 5.4984 6.72826 5.68181 6.31203C5.86522 5.89579 6.19793 5.55191 6.62305 5.33918C7.04818 5.12645 7.53932 5.05807 8.0125 5.14575C8.48569 5.23342 8.91153 5.4717 9.21723 5.81984C9.52292 6.16799 9.68949 6.60438 9.68845 7.0544C9.67545 7.56879 9.44412 8.05734 9.04525 8.41273H9.08992Z" fill="white"/>
</svg>
