<svg width="20" height="20" viewBox="0 0 20 20" fill="none" xmlns="http://www.w3.org/2000/svg">
<path d="M10 0C12.762 0 15.262 1.11979 17.0703 2.92969C18.8802 4.73958 20 7.23958 20 10C20 12.762 18.8802 15.262 17.0703 17.0703C15.2604 18.8802 12.7604 20 10 20C7.23958 20 4.73796 18.8802 2.92969 17.0703C1.11979 15.262 0 12.762 0 10C0 7.23796 1.11979 4.73796 2.92969 2.92969C4.73796 1.11979 7.23796 0 10 0ZM7.56673 14.165C8.54329 16.2012 11.5039 16.2728 12.4398 14.1764C12.1842 13.9176 11.9954 13.6426 11.8083 13.3675C11.7773 13.3219 11.7464 13.278 11.7155 13.2324C11.2646 13.5905 10.7161 13.8184 10.0016 13.8167C9.23177 13.8151 8.65234 13.5205 8.17708 13.0859C8.14942 13.0599 8.12012 13.0339 8.09245 13.0062C8.02409 13.195 7.93783 13.4212 7.84505 13.6328C7.75553 13.8363 7.65951 14.0267 7.56673 14.165ZM15.0814 17.5505L15.3027 15.1937C14.484 15.0342 13.6068 14.8617 12.7002 14.3392C12.0215 16.5999 8.37402 16.8685 7.34701 14.3978C6.5332 14.8079 5.70475 15.0423 4.76074 15.1872L5.08138 17.6563C6.49902 18.5693 8.18848 19.0999 10.0016 19.0999C11.8815 19.0999 13.6296 18.5286 15.0814 17.5505ZM2.69531 15.4281L2.73438 15.4053C3.70443 14.8649 6.22884 14.6859 7.27702 13.9551C7.35352 13.8395 7.43652 13.6719 7.51628 13.4896C7.63672 13.2145 7.74577 12.915 7.81576 12.71C7.52279 12.3649 7.27214 11.9759 7.03125 11.5918L6.23698 10.3288C5.94727 9.89583 5.7959 9.50033 5.78613 9.1748C5.78125 9.02181 5.80729 8.88346 5.86426 8.76139C5.92285 8.63281 6.014 8.52702 6.1377 8.44401C6.19466 8.40495 6.25977 8.3724 6.32975 8.34635C6.27767 7.66113 6.25977 6.7985 6.29232 6.07585C6.30859 5.90495 6.34277 5.73242 6.38997 5.56152C6.59342 4.83724 7.10124 4.25293 7.73112 3.85254C8.0778 3.63119 8.45866 3.46517 8.85579 3.35286C9.10807 3.28125 8.64095 2.47559 8.90137 2.44792C10.1628 2.31771 12.2021 3.47005 13.0827 4.4222C13.5238 4.89909 13.8005 5.53223 13.8607 6.36882L13.8118 8.42936C14.0316 8.49609 14.1732 8.63607 14.2301 8.8623C14.2936 9.11296 14.2253 9.46615 14.012 9.94629C14.0088 9.95443 14.0039 9.96419 13.999 9.97233L13.0941 11.4632C12.762 12.0101 12.4235 12.5602 11.984 12.9932C12.0231 13.0501 12.0638 13.1071 12.1029 13.1657C12.2819 13.4277 12.4626 13.6914 12.6937 13.9258C12.7018 13.9339 12.7083 13.9421 12.7132 13.9502C13.7549 14.6859 16.2907 14.8649 17.264 15.4069L17.3031 15.4297C18.431 13.9144 19.0983 12.0361 19.0983 10.0016C19.0983 7.48861 18.0794 5.21322 16.4323 3.56771C14.7884 1.91895 12.513 0.900065 10 0.900065C7.48698 0.900065 5.21159 1.91895 3.56608 3.56608C1.91895 5.21159 0.900065 7.48698 0.900065 10C0.900065 12.0345 1.56738 13.9128 2.69531 15.4281ZM6.78874 8.71419C6.61296 8.7207 6.47949 8.75814 6.38835 8.81836C6.33626 8.85254 6.29883 8.89811 6.27441 8.9502C6.24674 9.00879 6.23535 9.0804 6.23698 9.16341C6.24349 9.4043 6.37044 9.72005 6.61458 10.0846L6.61784 10.0895L7.41211 11.3525C7.73112 11.8587 8.06478 12.3747 8.47982 12.7539C8.87858 13.1185 9.36198 13.3659 10.0033 13.3675C10.6966 13.3691 11.2028 13.112 11.6146 12.7279C12.0426 12.3275 12.3796 11.779 12.7132 11.2305L13.6084 9.75749C13.7744 9.37663 13.8363 9.12272 13.7972 8.97298C13.7744 8.88346 13.6768 8.84115 13.5091 8.83138C13.4733 8.82975 13.4375 8.82975 13.4001 8.82975C13.361 8.83138 13.3187 8.83301 13.2747 8.83789C13.2503 8.83952 13.2275 8.83789 13.2064 8.83301C13.1266 8.83789 13.0452 8.83138 12.9606 8.81999L13.2666 7.46419C10.9945 7.82227 9.29362 6.13444 6.89128 7.12728L7.0638 8.72559C6.96452 8.73047 6.87337 8.72721 6.78874 8.71419Z" fill="#445668"/>
</svg>
