<svg width="20" height="20" viewBox="0 0 20 20" fill="none" xmlns="http://www.w3.org/2000/svg">
<path d="M9.99831 0C10.5542 0 11.0981 0.044 11.63 0.132L9.75835 2.004C8.19799 2.05083 6.68544 2.5533 5.40715 3.44948C4.12886 4.34566 3.1407 5.59636 2.56448 7.04743C1.98826 8.49849 1.84917 10.0865 2.16435 11.6156C2.47954 13.1448 3.23522 14.5483 4.33825 15.6531C5.44128 16.758 6.84344 17.5158 8.37189 17.8333C9.90033 18.1507 11.4883 18.0139 12.9399 17.4397C14.3916 16.8655 15.6435 15.879 16.5414 14.6018C17.4393 13.3246 17.9439 11.8125 17.9929 10.252L19.8666 8.38C19.9533 8.90666 19.9966 9.44666 19.9966 10C19.9966 11.9778 19.4102 13.9112 18.3116 15.5557C17.213 17.2002 15.6514 18.4819 13.8245 19.2388C11.9975 19.9957 9.98722 20.1937 8.04774 19.8078C6.10825 19.422 4.32673 18.4696 2.92844 17.0711C1.53015 15.6725 0.577906 13.8907 0.192119 11.9509C-0.193668 10.0111 0.0043321 8.00042 0.76108 6.17316C1.51783 4.3459 2.79934 2.78412 4.44355 1.6853C6.08776 0.58649 8.02083 0 9.99831 0ZM18.8788 1.124C18.5234 0.768479 18.1014 0.486461 17.637 0.294051C17.1727 0.101642 16.6749 0.00260949 16.1723 0.00260949C15.6696 0.00260949 15.1719 0.101642 14.7075 0.294051C14.2431 0.486461 13.8211 0.768479 13.4657 1.124L8.2986 6.292C8.18979 6.40111 8.10766 6.5339 8.05864 6.68L6.09097 12.52C6.02566 12.714 6.01577 12.9224 6.06243 13.1217C6.10908 13.321 6.21042 13.5034 6.35505 13.6483C6.49967 13.7931 6.68184 13.8947 6.88107 13.9417C7.08029 13.9886 7.28866 13.979 7.48273 13.914L13.3217 11.95C13.4685 11.9012 13.602 11.8191 13.7117 11.71L18.8788 6.54C19.2343 6.18453 19.5162 5.76251 19.7086 5.29804C19.901 4.83357 20 4.33575 20 3.833C20 3.33025 19.901 2.83243 19.7086 2.36796C19.5162 1.90349 19.2343 1.47947 18.8788 1.124Z" fill="#2051E5"/>
</svg>
