<svg width="32" height="32" viewBox="0 0 32 32" fill="none" xmlns="http://www.w3.org/2000/svg">
<circle cx="16" cy="16" r="16" fill="#ECECEC"/>
<path d="M17.8333 16.917C17.0694 16.917 16.4201 16.6496 15.8854 16.1149C15.3507 15.5802 15.0833 14.9309 15.0833 14.167C15.0833 13.4031 15.3507 12.7538 15.8854 12.2191C16.4201 11.6844 17.0694 11.417 17.8333 11.417C18.5972 11.417 19.2465 11.6844 19.7812 12.2191C20.3159 12.7538 20.5833 13.4031 20.5833 14.167C20.5833 14.9309 20.3159 15.5802 19.7812 16.1149C19.2465 16.6496 18.5972 16.917 17.8333 16.917ZM11.4166 19.667C10.9125 19.667 10.4809 19.4875 10.1218 19.1285C9.76281 18.7694 9.58329 18.3378 9.58329 17.8337V10.5003C9.58329 9.99616 9.76281 9.56456 10.1218 9.20553C10.4809 8.84651 10.9125 8.66699 11.4166 8.66699H24.25C24.7541 8.66699 25.1857 8.84651 25.5448 9.20553C25.9038 9.56456 26.0833 9.99616 26.0833 10.5003V17.8337C26.0833 18.3378 25.9038 18.7694 25.5448 19.1285C25.1857 19.4875 24.7541 19.667 24.25 19.667H11.4166ZM13.25 17.8337H22.4166C22.4166 17.3295 22.5961 16.8979 22.9552 16.5389C23.3142 16.1798 23.7458 16.0003 24.25 16.0003V12.3337C23.7458 12.3337 23.3142 12.1541 22.9552 11.7951C22.5961 11.4361 22.4166 11.0045 22.4166 10.5003H13.25C13.25 11.0045 13.0704 11.4361 12.7114 11.7951C12.3524 12.1541 11.9208 12.3337 11.4166 12.3337V16.0003C11.9208 16.0003 12.3524 16.1798 12.7114 16.5389C13.0704 16.8979 13.25 17.3295 13.25 17.8337ZM23.3333 23.3337H7.74996C7.24579 23.3337 6.8142 23.1541 6.45517 22.7951C6.09614 22.4361 5.91663 22.0045 5.91663 21.5003V11.417H7.74996V21.5003H23.3333V23.3337Z" fill="#616161"/>
</svg>
